<svg width="29" height="28" viewBox="0 0 29 28" fill="none" xmlns="http://www.w3.org/2000/svg">
<rect width="29" height="28" rx="14" fill="#E0001A"/>
<path d="M21.5047 11.6748H16.1438V6.31387C16.1438 5.65604 15.6103 5.12256 14.9524 5.12256H13.7611C13.1033 5.12256 12.5698 5.65604 12.5698 6.31387V11.6748H7.20889C6.55106 11.6748 6.01758 12.2083 6.01758 12.8661V14.0574C6.01758 14.7153 6.55106 15.2487 7.20889 15.2487H12.5698V20.6097C12.5698 21.2675 13.1033 21.801 13.7611 21.801H14.9524C15.6103 21.801 16.1438 21.2675 16.1438 20.6097V15.2487H21.5047C22.1625 15.2487 22.696 14.7153 22.696 14.0574V12.8661C22.696 12.2083 22.1625 11.6748 21.5047 11.6748Z" fill="white"/>
</svg>
