<svg width="20" height="20" viewBox="0 0 20 20" fill="none" xmlns="http://www.w3.org/2000/svg">
<path d="M17.6172 1.75781C17.6172 1.4296 17.3595 1.17188 17.0312 1.17188H14.1016V3.55469H14.6875C15.0157 3.55469 15.2734 3.81241 15.2734 4.14062C15.2734 4.46869 15.0157 4.72656 14.6875 4.72656H12.3438C12.0155 4.72656 11.7578 4.46869 11.7578 4.14062C11.7578 3.81241 12.0155 3.55469 12.3438 3.55469H12.9297V1.17188H9.41406V3.55469H10C10.3282 3.55469 10.5859 3.81241 10.5859 4.14062C10.5859 4.46869 10.3282 4.72656 10 4.72656H7.65625C7.32803 4.72656 7.07031 4.46869 7.07031 4.14062C7.07031 3.81241 7.32803 3.55469 7.65625 3.55469H8.24219V1.17188H4.72656V3.55469H5.3125C5.64072 3.55469 5.89844 3.81241 5.89844 4.14062C5.89844 4.46869 5.64072 4.72656 5.3125 4.72656H2.96875C2.64053 4.72656 2.38281 4.46869 2.38281 4.14062C2.38281 3.81241 2.64053 3.55469 2.96875 3.55469H3.55469V1.17188H0.585938C0.257721 1.17188 0 1.4296 0 1.75781V5.89844H17.6172V1.75781Z" fill="white"/>
<path d="M15.8594 11.7578C13.598 11.7578 11.7578 13.598 11.7578 15.8594C11.7578 18.1207 13.598 20 15.8594 20C18.1207 20 20 18.1207 20 15.8594C20 13.598 18.1207 11.7578 15.8594 11.7578ZM17.0312 16.4453H15.8594C15.5356 16.4453 15.2734 16.1832 15.2734 15.8594V14.6875C15.2734 14.3637 15.5356 14.1016 15.8594 14.1016C16.1832 14.1016 16.4453 14.3637 16.4453 14.6875V15.2734H17.0312C17.355 15.2734 17.6172 15.5356 17.6172 15.8594C17.6172 16.1832 17.355 16.4453 17.0312 16.4453Z" fill="white"/>
<path d="M4.72656 0.585938C4.72656 0.257721 4.46884 0 4.14062 0C3.81241 0 3.55469 0.257721 3.55469 0.585938V1.17188H4.72656V0.585938Z" fill="white"/>
<path d="M9.41406 0.585938C9.41406 0.257721 9.15634 0 8.82812 0C8.49991 0 8.24219 0.257721 8.24219 0.585938V1.17188H9.41406V0.585938Z" fill="white"/>
<path d="M14.1016 0.585938C14.1016 0.257721 13.8438 0 13.5156 0C13.1874 0 12.9297 0.257721 12.9297 0.585938V1.17188H14.1016V0.585938Z" fill="white"/>
<path d="M8.24219 14.6875H9.41406V15.8594H8.24219V14.6875Z" fill="white"/>
<path d="M3.55469 10H4.72656V11.1719H3.55469V10Z" fill="white"/>
<path d="M3.55469 14.6875H4.72656V15.8594H3.55469V14.6875Z" fill="white"/>
<path d="M0.585938 18.7891H11.4786C10.916 17.9503 10.5859 16.9431 10.5859 15.8594V16.4453C10.5859 16.7691 10.3238 17.0312 10 17.0312H7.65625C7.33246 17.0312 7.07031 16.7691 7.07031 16.4453V14.1016C7.07031 13.7778 7.33246 13.5156 7.65625 13.5156H10C10.3238 13.5156 10.5859 13.7778 10.5859 14.1016V15.8594C10.5859 14.4583 11.1441 13.1911 12.0384 12.2458C11.8735 12.1422 11.7578 11.9672 11.7578 11.7578V9.41406C11.7578 9.09027 12.02 8.82812 12.3438 8.82812H14.6875C15.0113 8.82812 15.2734 9.09027 15.2734 9.41406V10.6451C15.4683 10.6232 15.6587 10.5859 15.8594 10.5859C16.4787 10.5859 17.0647 10.7129 17.6172 10.9099V7.07031H0V18.2031C0 18.5269 0.262146 18.7891 0.585938 18.7891ZM7.07031 9.41406C7.07031 9.09027 7.33246 8.82812 7.65625 8.82812H10C10.3238 8.82812 10.5859 9.09027 10.5859 9.41406V11.7578C10.5859 12.0816 10.3238 12.3438 10 12.3438H7.65625C7.33246 12.3438 7.07031 12.0816 7.07031 11.7578V9.41406ZM2.38281 9.41406C2.38281 9.09027 2.64496 8.82812 2.96875 8.82812H5.3125C5.63629 8.82812 5.89844 9.09027 5.89844 9.41406V11.7578C5.89844 12.0816 5.63629 12.3438 5.3125 12.3438H2.96875C2.64496 12.3438 2.38281 12.0816 2.38281 11.7578V9.41406ZM2.38281 14.1016C2.38281 13.7778 2.64496 13.5156 2.96875 13.5156H5.3125C5.63629 13.5156 5.89844 13.7778 5.89844 14.1016V16.4453C5.89844 16.7691 5.63629 17.0312 5.3125 17.0312H2.96875C2.64496 17.0312 2.38281 16.7691 2.38281 16.4453V14.1016Z" fill="white"/>
<path d="M13.4941 11.1719C13.6908 11.0721 13.8918 10.9846 14.1016 10.9099V10H12.9297V11.1719H13.4941Z" fill="white"/>
<path d="M8.24219 10H9.41406V11.1719H8.24219V10Z" fill="white"/>
</svg>
