<svg width="20" height="17" viewBox="0 0 20 17" fill="none" xmlns="http://www.w3.org/2000/svg">
<path d="M15.0395 14.6229L11.9185 12.6044C11.7789 12.515 11.5919 12.5445 11.4886 12.6721L10.5799 13.8055C10.2853 14.1779 9.75382 14.2841 9.33156 14.0551L9.16356 13.9656C8.55741 13.6448 7.8028 13.2457 6.30481 11.7924C4.80683 10.3392 4.39513 9.60714 4.06477 9.01879L3.97218 8.85581C3.73611 8.44626 3.84566 7.93068 4.22944 7.6451L5.39742 6.7632C5.52915 6.66306 5.55953 6.48159 5.46719 6.34615L3.38686 3.31811C3.29225 3.1807 3.1032 3.13937 2.95697 3.22411L1.65111 3.98376C1.37095 4.14239 1.1649 4.4 1.07607 4.70267C0.647189 6.21783 1.00797 8.87086 5.16164 12.9008C9.31532 16.9307 12.0494 17.2814 13.6125 16.865C13.9246 16.7787 14.1901 16.5787 14.3536 16.3067L15.1363 15.0399C15.2239 14.8981 15.1812 14.7146 15.0395 14.6229Z" fill="white"/>
<path d="M19.3983 0.0510989C19.3641 0.0179058 19.3175 -0.000515342 19.2692 1.09762e-05H5.4136C5.3652 -0.000515342 5.31862 0.0179058 5.2844 0.0510989C5.25019 0.0842921 5.2312 0.129485 5.23174 0.176433V4.8467L6.01743 5.99004C6.3008 6.40541 6.20767 6.96225 5.80349 7.26941L4.63652 8.15131C4.5116 8.24324 4.47528 8.41026 4.5512 8.54335L4.64643 8.71177C4.95006 9.27198 5.32043 9.7957 5.74993 10.2722H19.2692C19.3684 10.2729 19.4496 10.1958 19.451 10.0996V0.176433C19.4516 0.129485 19.4326 0.0842921 19.3983 0.0510989ZM10.0031 5.88544V5.88383L6.61565 9.40465C6.49109 9.53426 6.28182 9.54135 6.14825 9.42054C6.01464 9.2997 6.00734 9.09668 6.13186 8.9671L9.51935 5.44789C9.64391 5.31828 9.85318 5.31119 9.98675 5.432C10.1204 5.55284 10.1277 5.75586 10.0031 5.88544ZM12.3414 5.63267C12.1031 5.63372 11.8709 5.5594 11.68 5.42095L6.15302 1.35507C6.00748 1.24753 5.97934 1.04588 6.0902 0.904646C6.20105 0.763453 6.40891 0.736155 6.55449 0.843699L12.0792 4.90958C12.2355 5.01979 12.4473 5.01979 12.6037 4.90958L18.13 0.843699C18.2755 0.736611 18.483 0.76426 18.5934 0.905454C18.7038 1.04665 18.6753 1.24795 18.5298 1.35507L13.0027 5.42095C12.8119 5.5594 12.5797 5.63372 12.3414 5.63267ZM18.5556 9.4204C18.4914 9.47851 18.4061 9.50949 18.3184 9.50654C18.2307 9.5036 18.1478 9.46696 18.088 9.40468L14.7008 5.88386C14.5857 5.75302 14.5975 5.5574 14.7275 5.44046C14.8575 5.32347 15.0594 5.32677 15.1853 5.44789L18.5718 8.9671C18.6963 9.09661 18.689 9.29953 18.5556 9.4204Z" fill="white"/>
</svg>
