<svg width="23" height="23" viewBox="0 0 23 23" fill="none" xmlns="http://www.w3.org/2000/svg">
<path d="M21.3291 18.5136L21.8055 18.0372C21.9811 17.8616 22.0462 17.6036 21.9739 17.3655C21.9022 17.1279 21.7048 16.9489 21.4614 16.9003L16.6966 15.9475C16.4755 15.9052 16.2472 15.9717 16.0879 16.1317C15.9287 16.2909 15.8596 16.5192 15.9037 16.7403L16.8565 21.5051C16.9052 21.7486 17.0842 21.946 17.3216 22.0176C17.5606 22.092 17.8186 22.0243 17.9935 21.8492L18.4699 21.3727L19.8999 22.802C20.1631 23.0652 20.5895 23.0652 20.8527 22.802L22.8032 20.8963C23.0664 20.6331 23.0664 20.2067 22.8032 19.9435L21.3291 18.5136Z" fill="#2B4279"/>
<path d="M1.34763 18.9565H4.0878C4.83215 18.9565 5.43542 18.353 5.43542 17.6088V14.9136H0V17.6088C0 18.353 0.603273 18.9565 1.34763 18.9565Z" fill="#FFA74A"/>
<path d="M5.43542 1.34763C5.43542 0.603273 4.83215 0 4.0878 0H1.34763C0.603273 0 0 0.603273 0 1.34763V2.69525H5.43542V1.34763Z" fill="#FFA74A"/>
<path d="M5.43542 4.04297H0V13.5662H5.43542V4.04297ZM3.41399 10.1971C3.41399 10.5695 3.1127 10.8709 2.74017 10.8709C2.36782 10.8709 2.06636 10.5695 2.06636 10.1971V7.41203C2.06636 7.03968 2.36782 6.73822 2.74017 6.73822C3.1127 6.73822 3.41399 7.03968 3.41399 7.41203V10.1971Z" fill="#FFA74A"/>
<path d="M8.13083 18.9565H10.8261C11.5704 18.9565 12.1737 18.353 12.1737 17.6088V14.9136H6.7832V17.6088C6.7832 18.353 7.38648 18.9565 8.13083 18.9565Z" fill="#FFA74A"/>
<path d="M12.1737 1.34763C12.1737 0.603273 11.5704 0 10.8261 0H8.13083C7.38648 0 6.7832 0.603273 6.7832 1.34763V2.69525H12.1737V1.34763Z" fill="#FFA74A"/>
<path d="M12.1737 4.04297H6.7832V13.5662H12.1737V4.04297ZM10.1523 10.1971C10.1523 10.5695 9.85098 10.8709 9.47845 10.8709C9.1061 10.8709 8.80464 10.5695 8.80464 10.1971V7.41203C8.80464 7.03968 9.1061 6.73822 9.47845 6.73822C9.85098 6.73822 10.1523 7.03968 10.1523 7.41203V10.1971Z" fill="#FFA74A"/>
<path d="M18.912 1.34763C18.912 0.603273 18.3087 0 17.5644 0H14.8691C14.1248 0 13.5215 0.603273 13.5215 1.34763V2.69525H18.912V1.34763Z" fill="#FFA74A"/>
<path d="M18.912 4.04297H13.5215V13.5662H18.912V4.04297ZM16.8905 10.1971C16.8905 10.5695 16.5893 10.8709 16.2167 10.8709C15.8444 10.8709 15.5429 10.5695 15.5429 10.1971V7.41203C15.5429 7.03968 15.8444 6.73822 16.2167 6.73822C16.5893 6.73822 16.8905 7.03968 16.8905 7.41203V10.1971Z" fill="#FFA74A"/>
<path d="M15.4638 14.9136H13.5215V17.6088C13.5215 18.353 14.1248 18.9565 14.8691 18.9565H14.9719L14.5817 17.0049C14.4487 16.3395 14.6554 15.6572 15.1344 15.1787C15.2353 15.0773 15.3464 14.9901 15.4638 14.9136Z" fill="#FFA74A"/>
</svg>
