<svg width="63" height="63" viewBox="0 0 63 63" fill="none" xmlns="http://www.w3.org/2000/svg">
<path d="M58.018 0H4.907C2.02053 0 0 2.02053 0 4.907V43.297V46.7608C0 49.3586 2.02053 51.3791 4.907 51.3791H24.535V56.2861H23.0917C20.2053 56.2861 17.8961 58.5953 17.8961 61.4818C17.8961 62.0591 18.1847 62.3477 18.762 62.3477H44.163C44.7403 62.3477 45.0289 62.0591 45.0289 61.4818C45.0289 58.5953 42.7197 56.2861 39.8333 56.2861H38.39V51.3791H58.018C60.6158 51.3791 62.6364 49.3586 62.6364 46.7608V43.297V4.907C62.6364 2.02053 60.6158 0 58.018 0ZM2.02053 4.907C2.02053 3.46376 3.17512 2.02053 4.907 2.02053H58.018C59.4612 2.02053 60.9045 3.17512 60.9045 4.907V42.4311H55.7088V20.2053C55.7088 19.628 55.1315 19.3393 54.8429 19.3393C54.2656 19.3393 53.977 19.628 53.977 20.2053V42.4311H49.07V23.0917C49.07 22.5145 48.7813 22.2258 48.204 22.2258C47.6267 22.2258 47.3381 22.5145 47.3381 23.0917V42.4311H42.1424V28.8647C42.1424 28.2874 41.8538 27.9987 41.2765 27.9987C40.6992 27.7101 40.4106 28.2874 40.4106 28.8647V42.4311H35.5036V26.8442C35.5036 26.2669 35.2149 25.9782 34.6376 25.9782C34.0603 25.9782 33.7717 26.2669 33.7717 26.8442V42.4311H28.8647V30.5966C28.8647 30.0193 28.576 29.7306 27.9987 29.7306C27.4214 29.7306 27.1328 30.0193 27.1328 30.5966V42.4311H22.2258V32.6171C22.2258 32.0398 21.9372 31.7512 21.3599 31.7512C20.7826 31.7512 20.4939 32.3284 20.4939 32.6171V42.4311H15.5869V28.8647C15.5869 28.2874 15.2983 27.9987 14.721 27.9987C14.1437 27.7101 13.855 28.2874 13.855 28.8647V42.4311H8.94805V34.6376C8.94805 34.0603 8.6594 33.7717 8.08211 33.7717C7.50482 33.7717 7.21617 34.0603 7.21617 34.6376V42.4311H2.02053V4.907ZM43.0084 60.9045H19.9166C20.2053 59.4612 21.3599 58.3067 23.0917 58.3067H25.4009H37.5241H39.8333C41.2765 58.3067 42.4311 59.4612 43.0084 60.9045ZM36.3695 56.5748H26.2669V51.3791H36.3695V56.5748ZM60.9045 46.7608C60.9045 48.204 59.7499 49.6473 58.018 49.6473H37.5241H25.4009H4.907C3.46376 49.6473 2.02053 48.4927 2.02053 46.7608V44.4516H60.9045V46.7608Z" fill="#E0001A"/>
<path d="M34.3483 20.4934L27.7094 23.9571L21.3592 25.9777L15.2976 22.2253C15.0089 21.9366 14.4316 22.2253 14.143 22.2253L7.50412 27.9982C6.92683 28.2868 6.92683 28.8641 7.21548 29.4414C7.50412 29.7301 7.79277 29.7301 8.08142 29.7301C8.37007 29.7301 8.65871 29.7301 8.65871 29.4414L14.7203 24.2458L20.7819 27.7095C21.0705 27.7095 21.3592 27.9982 21.6478 27.7095L28.2867 25.9777C28.2867 25.9777 28.2867 25.9777 28.5753 25.9777L34.9256 22.2253L41.2758 23.9571C41.5644 23.9571 41.8531 23.9571 42.1417 23.6685L48.7806 18.1842L50.5125 17.3183L51.3784 19.0501L54.5536 14.4318L49.0693 13.8545L49.9352 15.5864L47.626 16.4523H47.3374L40.9872 21.9366L34.9256 20.2047C34.6369 20.2047 34.3483 20.2047 34.3483 20.4934Z" fill="#E0001A"/>
<path d="M27.9973 8.37031H34.6362C35.2135 8.37031 35.5021 8.08166 35.5021 7.50437C35.5021 6.92707 35.2135 6.63843 34.6362 6.63843H27.9973C27.42 6.63843 27.1313 6.92707 27.1313 7.50437C27.1313 7.79301 27.42 8.37031 27.9973 8.37031Z" fill="#E0001A"/>
<path d="M8.08225 8.37031H23.3805C23.9578 8.37031 24.2465 8.08166 24.2465 7.50437C24.2465 6.92707 23.9578 6.63843 23.3805 6.63843H8.08225C7.50496 6.63843 7.21631 6.92707 7.21631 7.50437C7.21631 7.79301 7.50496 8.37031 8.08225 8.37031Z" fill="#E0001A"/>
<path d="M34.6384 14.1435C35.2157 14.1435 35.5043 13.8549 35.5043 13.2776C35.5043 12.7003 35.2157 12.4116 34.6384 12.4116H23.0925C22.5152 12.4116 22.2266 12.7003 22.2266 13.2776C22.2266 13.8549 22.5152 14.1435 23.0925 14.1435H34.6384Z" fill="#E0001A"/>
<path d="M8.08225 14.1435H18.4735C19.0508 14.1435 19.3395 13.8549 19.3395 13.2776C19.3395 12.7003 19.0508 12.4116 18.4735 12.4116H8.08225C7.50496 12.4116 7.21631 12.7003 7.21631 13.2776C7.21631 13.5662 7.50496 14.1435 8.08225 14.1435Z" fill="#E0001A"/>
<path d="M16.166 19.0501C16.166 19.6274 16.4547 19.9161 17.032 19.9161H25.98C26.5573 19.9161 26.8459 19.6274 26.8459 19.0501C26.8459 18.4728 26.5573 18.1842 25.98 18.1842H17.032C16.4547 17.8956 16.166 18.4728 16.166 19.0501Z" fill="#E0001A"/>
<path d="M8.08225 19.9167H12.412C12.9892 19.9167 13.2779 19.6281 13.2779 19.0508C13.2779 18.4735 12.9892 18.1848 12.412 18.1848H8.08225C7.50496 18.1848 7.21631 18.4735 7.21631 19.0508C7.21631 19.3394 7.50496 19.9167 8.08225 19.9167Z" fill="#E0001A"/>
</svg>
