<svg width="69" height="63" viewBox="0 0 69 63" fill="none" xmlns="http://www.w3.org/2000/svg">
<path d="M13.6059 12.0813C13.6059 11.4454 13.2895 11.1274 12.6567 11.1274H9.49266C8.85986 11.1274 8.54346 11.7633 8.54346 12.0813C8.54346 12.3992 8.85986 13.3531 9.49266 13.3531H12.6567C13.2895 13.3531 13.6059 12.7172 13.6059 12.0813Z" fill="#E0001A"/>
<path d="M29.4223 13.3531H32.9028C33.5356 13.3531 33.852 12.7172 33.852 12.3992C33.852 12.0813 33.5356 11.1274 32.9028 11.1274H29.4223C28.7895 11.1274 28.4731 11.7633 28.4731 12.0813C28.4731 12.3992 29.1059 13.3531 29.4223 13.3531Z" fill="#E0001A"/>
<path d="M49.6763 13.3531H53.1567C53.7895 13.3531 54.1059 12.7172 54.1059 12.3992C54.1059 12.0813 53.7895 11.1274 53.1567 11.1274H49.6763C49.0435 11.1274 48.7271 11.7633 48.7271 12.0813C48.7271 12.3992 49.0435 13.3531 49.6763 13.3531Z" fill="#E0001A"/>
<path d="M39.5493 13.3531H43.0297C43.6625 13.3531 43.9789 12.7172 43.9789 12.3992C43.9789 12.0813 43.6625 11.1274 43.0297 11.1274H39.5493C38.9165 11.1274 38.6001 11.7633 38.6001 12.0813C38.6001 12.3992 38.9165 13.3531 39.5493 13.3531Z" fill="#E0001A"/>
<path d="M22.7831 11.1274H19.3027C18.6699 11.1274 18.3535 11.7633 18.3535 12.0813C18.3535 12.3992 18.9863 13.3531 19.3027 13.3531H22.7831C23.4159 13.3531 23.7323 12.7172 23.7323 12.3992C23.7323 12.0813 23.4159 11.1274 22.7831 11.1274Z" fill="#E0001A"/>
<path d="M33.224 20.031H29.1108C27.5288 20.031 25.9468 21.3028 25.9468 23.2105V27.3439C25.9468 28.9336 27.2124 30.5234 29.1108 30.5234H33.224C34.806 30.5234 36.388 28.9336 36.388 27.3439V23.2105C36.388 21.6208 35.1224 20.031 33.224 20.031ZM34.4896 27.3439C34.4896 27.9798 34.1732 28.2977 33.5404 28.2977H29.1108C28.478 28.2977 28.1616 27.9798 28.1616 27.3439V23.2105C28.1616 22.5746 28.478 22.2567 29.1108 22.2567H33.224C33.8568 22.2567 34.1732 22.5746 34.1732 23.2105V27.3439H34.4896Z" fill="#E0001A"/>
<path d="M31.3227 24.1646C30.6899 24.1646 30.3735 24.4825 30.3735 25.1184C30.3735 25.7543 31.0063 26.0723 31.3227 26.0723C31.9555 26.0723 32.2719 25.7543 32.2719 25.1184C32.2719 24.8005 31.9555 24.1646 31.3227 24.1646Z" fill="#E0001A"/>
<path d="M17.4037 20.031H12.9741C11.3921 20.031 9.81006 21.3028 9.81006 23.2105V27.3439C9.81006 28.9336 11.0757 30.5234 12.9741 30.5234H17.0873C18.6693 30.5234 20.2513 28.9336 20.2513 27.3439V23.2105C20.2513 21.6208 18.9857 20.031 17.4037 20.031ZM18.3529 27.3439C18.3529 27.9798 17.7201 28.2977 17.4037 28.2977H12.9741C12.3413 28.2977 12.0249 27.9798 12.0249 27.3439V23.2105C12.0249 22.5746 12.3413 22.2567 12.9741 22.2567H17.0873C17.7201 22.2567 18.0365 22.5746 18.0365 23.2105V27.3439H18.3529Z" fill="#E0001A"/>
<path d="M42.084 23.2105V27.3439C42.084 28.9336 43.3496 30.5234 45.248 30.5234H49.3612C50.9432 30.5234 52.5252 28.9336 52.5252 27.3439V23.2105C52.5252 21.6208 51.2596 20.031 49.3612 20.031H45.248C43.3496 20.031 42.084 21.6208 42.084 23.2105ZM44.2988 23.2105C44.2988 22.5746 44.6152 22.2567 45.248 22.2567H49.3612C49.994 22.2567 50.3104 22.5746 50.3104 23.2105V27.3439C50.3104 27.9798 49.994 28.2977 49.3612 28.2977H45.248C44.6152 28.2977 44.2988 27.9798 44.2988 27.3439V23.2105Z" fill="#E0001A"/>
<path d="M17.4037 37.1997H12.9741C11.3921 37.1997 9.81006 38.4715 9.81006 40.3792V44.5126C9.81006 46.1023 11.0757 47.6921 12.9741 47.6921H17.0873C18.6693 47.6921 20.2513 46.4203 20.2513 44.5126V40.3792C20.2513 38.4715 18.9857 37.1997 17.4037 37.1997ZM18.3529 44.5126C18.3529 45.1485 17.7201 45.4664 17.4037 45.4664H12.9741C12.3413 45.4664 12.0249 45.1485 12.0249 44.5126V40.3792C12.0249 39.7433 12.3413 39.4254 12.9741 39.4254H17.0873C17.7201 39.4254 18.0365 39.7433 18.0365 40.3792V44.5126H18.3529Z" fill="#E0001A"/>
<path d="M33.224 37.1997H29.1108C27.5288 37.1997 25.9468 38.4715 25.9468 40.3792V44.5126C25.9468 46.1023 27.2124 47.6921 29.1108 47.6921H33.224C34.806 47.6921 36.388 46.4203 36.388 44.5126V40.3792C36.388 38.4715 35.1224 37.1997 33.224 37.1997ZM34.4896 44.5126C34.4896 45.1485 34.1732 45.4664 33.5404 45.4664H29.1108C28.478 45.4664 28.1616 45.1485 28.1616 44.5126V40.3792C28.1616 39.7433 28.478 39.4254 29.1108 39.4254H33.224C33.8568 39.4254 34.1732 39.7433 34.1732 40.3792V44.5126H34.4896Z" fill="#E0001A"/>
<path d="M62.3311 35.2926V6.99492C62.3311 4.76927 60.4327 2.86156 58.2178 2.86156H53.1554V0.953853C53.1554 0.317951 52.5226 0 51.8898 0C51.5734 0 50.9406 0.317951 50.9406 0.953853V2.54361H42.7142V0.953853C42.7142 0.317951 42.0814 0 41.765 0C41.1322 0 40.4994 0.317951 40.4994 0.953853V2.54361H32.2729V0.953853C32.2729 0.317951 31.9565 0 31.3237 0C30.6909 0 30.0581 0.317951 30.0581 0.953853V2.54361H21.8317V0.953853C21.8317 0.317951 21.5153 0 20.8825 0C20.2497 0 19.9333 0.317951 19.9333 0.953853V2.54361H11.3904V0.953853C11.3904 0.317951 11.074 0 10.4412 0C9.80844 0 9.49204 0.317951 9.49204 0.953853V2.54361H4.11322C1.89841 2.86156 0 4.76927 0 6.99492V52.144C0 54.3696 1.89841 56.2773 4.11322 56.2773H41.4486C44.2962 60.0928 48.7258 62.6364 53.7882 62.6364C62.0147 62.6364 68.9755 55.9594 68.9755 47.3747C68.6591 42.6054 66.1279 37.8362 62.3311 35.2926ZM4.11322 54.3696C2.84761 54.3696 1.89841 53.4158 1.89841 52.144V13.3539H2.53121C3.16401 13.3539 3.48041 12.718 3.48041 12.4001C3.48041 12.0821 3.16401 11.1283 2.53121 11.1283H2.21481V6.99492C2.21481 5.72312 3.16401 4.76927 4.42962 4.76927H9.49204V6.35902C9.49204 6.99492 9.80844 7.31288 10.4412 7.31288C11.074 7.31288 11.3904 6.99492 11.3904 6.35902V4.76927H19.6169V6.35902C19.6169 6.99492 20.2497 7.31288 20.5661 7.31288C21.1989 7.31288 21.5153 6.99492 21.5153 6.35902V4.76927H29.7417V6.35902C29.7417 6.99492 30.3745 7.31288 30.6909 7.31288C31.3237 7.31288 31.6401 6.99492 31.6401 6.35902V4.76927H39.8666V6.35902C39.8666 6.99492 40.183 7.31288 40.8158 7.31288C41.4486 7.31288 41.765 6.99492 41.765 6.35902V4.76927H49.9914V6.35902C49.9914 6.99492 50.3078 7.31288 50.9406 7.31288C51.5734 7.31288 51.8898 6.99492 51.8898 6.35902V4.76927H56.9522C58.2178 4.76927 59.167 5.72312 59.167 6.99492V11.1283H59.7998C59.167 11.1283 58.8506 11.7642 58.8506 12.0821C58.8506 12.4001 59.167 13.036 59.7998 13.036H60.4326V33.7028C58.2178 33.0669 56.003 32.431 53.7882 32.431C45.5618 32.431 38.601 39.108 38.601 47.6927C38.601 50.2363 39.2338 52.4619 40.183 54.3696H4.11322ZM53.7882 60.4107C46.511 60.4107 40.8158 54.6876 40.8158 47.3747C40.8158 40.0618 46.511 34.3387 53.7882 34.3387C61.0655 34.3387 66.7607 40.0618 66.7607 47.3747C66.7607 54.6876 60.7491 60.4107 53.7882 60.4107Z" fill="#E0001A"/>
<path d="M60.4301 46.4214H54.7348V39.4265C54.7348 38.7906 54.4184 38.4727 53.7856 38.4727C53.1528 38.4727 52.8364 39.1086 52.8364 39.4265V47.3753C52.8364 48.0112 53.1528 48.3291 53.7856 48.3291H60.4301C61.0629 48.3291 61.3793 48.0112 61.3793 47.3753C61.3793 46.7394 60.7465 46.4214 60.4301 46.4214Z" fill="#E0001A"/>
<path d="M15.186 41.3333C14.5532 41.3333 14.2368 41.6512 14.2368 42.2871C14.2368 42.923 14.5532 43.241 15.186 43.241C15.8188 43.241 16.1352 42.923 16.1352 42.2871C16.1352 41.6512 15.8188 41.3333 15.186 41.3333Z" fill="#E0001A"/>
</svg>
