<svg width="60" height="63" viewBox="0 0 60 63" fill="none" xmlns="http://www.w3.org/2000/svg">
<path d="M17.2725 19.3406H14.3933C12.9537 19.3406 11.5142 20.7838 11.5142 22.227V24.8249C11.5142 26.2681 12.6658 27.7113 14.3933 27.7113H17.2725C19 27.7113 20.1516 26.5567 20.1516 24.8249V22.227C20.1516 20.4952 18.7121 19.3406 17.2725 19.3406ZM18.1362 24.8249C18.1362 25.4022 17.8483 25.6908 17.2725 25.6908H14.3933C13.8175 25.6908 13.5296 25.1135 13.5296 24.8249V22.227C13.5296 21.6498 14.1054 21.3611 14.3933 21.3611H17.2725C17.8483 21.3611 18.1362 21.6498 18.1362 22.227V24.8249Z" fill="#E0001A"/>
<path d="M17.2725 32.3284H14.3933C12.9537 32.3284 11.5142 33.483 11.5142 35.2148V37.8127C11.5142 39.2559 12.6658 40.6991 14.3933 40.6991H17.2725C19 40.6991 20.1516 39.5445 20.1516 37.8127V35.2148C20.1516 33.7716 18.7121 32.3284 17.2725 32.3284ZM18.1362 37.8127C18.1362 38.39 17.8483 38.6786 17.2725 38.6786H14.3933C13.8175 38.6786 13.5296 38.39 13.5296 37.8127V35.2148C13.5296 34.6375 14.1054 34.3489 14.3933 34.3489H17.2725C17.8483 34.3489 18.1362 34.6375 18.1362 35.2148V37.8127Z" fill="#E0001A"/>
<path d="M17.2725 45.3162H14.3933C12.9537 45.3162 11.5142 46.4707 11.5142 48.2026V50.8004C11.5142 52.2437 12.6658 53.6869 14.3933 53.6869H17.2725C19 53.6869 20.1516 52.5323 20.1516 50.8004V48.2026C20.1516 46.7594 18.7121 45.3162 17.2725 45.3162ZM18.1362 51.0891C18.1362 51.6664 17.8483 51.955 17.2725 51.955H14.3933C13.8175 51.955 13.5296 51.6664 13.5296 51.0891V48.2026C13.5296 47.6253 14.1054 47.3367 14.3933 47.3367H17.2725C17.8483 47.3367 18.1362 47.6253 18.1362 48.2026V51.0891Z" fill="#E0001A"/>
<path d="M23.8984 21.0725H43.1888C43.7646 21.0725 44.0525 20.7838 44.0525 20.2065C44.0525 19.6292 43.7646 19.3406 43.1888 19.3406H23.8984C23.6105 19.3406 23.0347 19.6292 23.0347 20.2065C23.0347 20.7838 23.6105 21.0725 23.8984 21.0725Z" fill="#E0001A"/>
<path d="M23.8984 34.3491H43.1888C43.7646 34.3491 44.0525 34.0604 44.0525 33.4831C44.0525 32.9058 43.7646 32.6172 43.1888 32.6172H23.8984C23.3226 32.6172 23.0347 32.9058 23.0347 33.4831C23.0347 33.7718 23.6105 34.3491 23.8984 34.3491Z" fill="#E0001A"/>
<path d="M23.8984 40.6984H36.5667C37.1425 40.6984 37.4305 40.4098 37.4305 39.8325C37.4305 39.2552 37.1425 38.9666 36.5667 38.9666H23.8984C23.3226 38.9666 23.0347 39.2552 23.0347 39.8325C23.0347 40.4098 23.6105 40.6984 23.8984 40.6984Z" fill="#E0001A"/>
<path d="M23.8984 27.7109H38.87C39.4459 27.7109 39.7338 27.4222 39.7338 26.8449C39.7338 26.2677 39.1579 25.979 38.87 25.979H23.8984C23.3226 25.979 23.0347 26.2677 23.0347 26.8449C23.0347 27.4222 23.6105 27.7109 23.8984 27.7109Z" fill="#E0001A"/>
<path d="M23.8984 47.3368H36.5667C37.1425 47.3368 37.4305 47.0482 37.4305 46.4709C37.4305 45.8936 37.1425 45.605 36.5667 45.605H23.8984C23.3226 45.605 23.0347 45.8936 23.0347 46.4709C23.0347 47.0482 23.6105 47.3368 23.8984 47.3368Z" fill="#E0001A"/>
<path d="M39.1579 51.9578H23.8984C23.6105 51.9578 23.0347 52.5351 23.0347 52.8237C23.0347 53.401 23.6105 53.6896 23.8984 53.6896H38.87C39.4459 53.6896 39.7338 53.401 39.7338 52.8237C40.0217 52.5351 39.4459 51.9578 39.1579 51.9578Z" fill="#E0001A"/>
<path d="M59.0227 44.163C59.0227 39.256 55.2798 35.2149 50.3853 34.6376V6.92752C50.3853 3.17512 47.2182 0 43.4753 0H6.90998C3.16707 0 0 3.17512 0 6.92752C0 10.3913 2.59124 13.2778 6.04623 13.855V61.4818C6.04623 61.7704 6.04623 62.0591 6.33415 62.0591C6.62206 62.3477 6.62206 62.3477 6.90998 62.3477H49.2336C49.8094 62.3477 50.0973 62.0591 50.0973 61.4818V53.6883C55.2798 53.3997 59.0227 49.3586 59.0227 44.163ZM2.01541 6.92752C2.01541 4.04106 4.31874 1.73188 7.19789 1.73188H9.78913H38.8686C37.1411 3.17512 36.2774 4.907 36.2774 6.92752C36.2774 8.94805 37.1411 10.6799 38.5807 12.1232H6.90998C4.31874 12.1232 2.01541 9.81399 2.01541 6.92752ZM8.06164 60.9045V14.1437H43.4753C44.0511 14.1437 44.339 13.855 44.339 13.2778C44.339 12.7005 44.0511 12.4118 43.4753 12.4118C40.5961 12.4118 38.2928 10.1026 38.2928 7.21617C38.2928 4.3297 40.5961 2.02053 43.4753 2.02053C46.3544 2.02053 48.6578 4.3297 48.6578 7.21617V34.6376C43.7632 35.2149 40.0203 39.256 40.0203 44.163C40.0203 49.07 43.7632 53.111 48.6578 53.6883V60.6158H8.06164V60.9045ZM49.5215 51.9564C45.2028 51.9564 41.7478 48.4927 41.7478 44.163C41.7478 39.8333 45.2028 36.3695 49.5215 36.3695C53.8402 36.3695 57.2952 39.8333 57.2952 44.163C57.2952 48.4927 53.5523 51.9564 49.5215 51.9564Z" fill="#E0001A"/>
<path d="M59.0227 44.163C59.0227 39.256 55.2798 35.2149 50.3853 34.6376V6.92752C50.3853 3.17512 47.2182 0 43.4753 0H6.90998C3.16707 0 0 3.17512 0 6.92752C0 10.3913 2.59124 13.2778 6.04623 13.855V61.4818C6.04623 61.7704 6.04623 62.0591 6.33415 62.0591C6.62206 62.3477 6.62206 62.3477 6.90998 62.3477H49.2336C49.8094 62.3477 50.0973 62.0591 50.0973 61.4818V53.6883C55.2798 53.3997 59.0227 49.3586 59.0227 44.163ZM2.01541 6.92752C2.01541 4.04106 4.31874 1.73188 7.19789 1.73188H9.78913H38.8686C37.1411 3.17512 36.2774 4.907 36.2774 6.92752C36.2774 8.94805 37.1411 10.6799 38.5807 12.1232H6.90998C4.31874 12.1232 2.01541 9.81399 2.01541 6.92752ZM8.06164 60.9045V14.1437H43.4753C44.0511 14.1437 44.339 13.855 44.339 13.2778C44.339 12.7005 44.0511 12.4118 43.4753 12.4118C40.5961 12.4118 38.2928 10.1026 38.2928 7.21617C38.2928 4.3297 40.5961 2.02053 43.4753 2.02053C46.3544 2.02053 48.6578 4.3297 48.6578 7.21617V34.6376C43.7632 35.2149 40.0203 39.256 40.0203 44.163C40.0203 49.07 43.7632 53.111 48.6578 53.6883V60.6158H8.06164V60.9045ZM49.5215 51.9564C45.2028 51.9564 41.7478 48.4927 41.7478 44.163C41.7478 39.8333 45.2028 36.3695 49.5215 36.3695C53.8402 36.3695 57.2952 39.8333 57.2952 44.163C57.2952 48.4927 53.5523 51.9564 49.5215 51.9564Z" fill="#E0001A"/>
<path d="M49.5984 48.6574C49.7661 48.832 49.7661 48.832 49.9337 48.832C50.1014 48.832 50.2691 48.832 50.2691 48.6574L55.1315 43.5924C55.4668 43.4177 55.4668 43.2431 55.2991 43.0684C55.2991 42.8938 54.9638 42.7191 54.7961 42.7191H52.6164V40.274C52.6164 39.9247 52.4488 39.75 52.1134 39.75H47.9217C47.5864 39.75 47.2511 39.9247 47.2511 40.274V42.7191H45.0714C44.9037 42.7191 44.736 42.8938 44.5684 43.0684C44.5684 43.2431 44.5684 43.4177 44.736 43.5924L49.5984 48.6574ZM47.9217 43.7671C48.2571 43.7671 48.4247 43.4177 48.4247 43.2431V40.9726H51.6104V43.2431C51.6104 43.5924 51.7781 43.7671 52.1134 43.7671H53.4548L49.9337 47.6095L46.4127 43.7671H47.9217Z" fill="#E0001A"/>
</svg>
