<svg width="98" height="68" viewBox="0 0 98 68" fill="none" xmlns="http://www.w3.org/2000/svg">
<path d="M80.9706 64.2046H28.1917C20.3726 64.2046 14 57.9026 14 50.1702C14 42.4377 20.3726 36.1357 28.1917 36.1357H81.0097C81.3224 36.1357 81.6352 36.2904 81.7916 36.561C81.948 36.8317 81.9871 37.1796 81.8698 37.4503C78.2339 45.5307 78.2339 54.8096 81.8698 62.8514C81.9871 63.122 81.9871 63.47 81.7916 63.7406C81.5961 64.0112 81.2833 64.2046 80.9706 64.2046ZM28.1917 38.0302C21.4281 38.0302 15.9157 43.4816 15.9157 50.1702C15.9157 56.8587 21.4281 62.3101 28.1917 62.3101H79.5631C76.4746 54.5003 76.4746 45.8013 79.5631 37.9915H28.1917V38.0302Z" fill="#E0001A"/>
<path d="M79.6411 60.4932H28.1914C22.4444 60.4932 17.792 55.8923 17.792 50.209C17.792 44.5256 22.4444 39.9248 28.1914 39.9248H79.5238V41.7806H28.1914C23.4999 41.7806 19.6686 45.5695 19.6686 50.209C19.6686 54.8485 23.4999 58.6374 28.1914 58.6374H79.6802V60.4932H79.6411Z" fill="#E0001A"/>
<path d="M68.5383 46.6903H48.365C47.8568 46.6903 47.4268 46.2651 47.4268 45.7625C47.4268 45.2212 47.8568 44.7959 48.365 44.7959H68.5383C69.0466 44.7959 69.4766 45.2212 69.4766 45.7238C69.4766 46.2651 69.0466 46.6903 68.5383 46.6903Z" fill="#E0001A"/>
<path d="M64.0816 51.6781H34.8773C34.369 51.6781 33.939 51.2528 33.939 50.7502C33.939 50.2476 34.3299 49.8223 34.8773 49.8223H64.0816C64.5898 49.8223 65.0199 50.2476 65.0199 50.7502C65.0199 51.2528 64.5898 51.6781 64.0816 51.6781Z" fill="#E0001A"/>
<path d="M68.4601 56.6654H48.4432C47.9349 56.6654 47.5049 56.2401 47.5049 55.7375C47.5049 55.2349 47.9349 54.8096 48.4432 54.8096H68.4601C68.9683 54.8096 69.3984 55.2349 69.3984 55.7375C69.3984 56.2401 68.9683 56.6654 68.4601 56.6654Z" fill="#E0001A"/>
<path d="M69.7113 38.0302H16.8933C16.5805 38.0302 16.2677 37.8755 16.1114 37.6049C15.9159 37.3342 15.9159 37.0249 16.0332 36.7156C19.669 28.6352 19.669 19.3563 16.0332 11.3145C15.9159 11.0052 15.9159 10.6959 16.1114 10.4253C16.2677 10.1546 16.5805 10 16.8933 10H69.7113C77.5304 10 83.9029 16.302 83.9029 24.0344C83.9029 31.7669 77.5304 38.0302 69.7113 38.0302ZM18.3398 36.1744H69.7113C76.4748 36.1744 81.9873 30.723 81.9873 24.0344C81.9873 17.3458 76.4748 11.8945 69.7113 11.8945H18.3398C21.4283 19.6656 21.4283 28.3646 18.3398 36.1744Z" fill="#E0001A"/>
<path d="M69.7114 34.3183H18.379V32.4239H69.7114C74.4029 32.4239 78.2342 28.635 78.2342 23.9955C78.2342 19.356 74.4029 15.5671 69.7114 15.5671H18.2227V13.75H69.7114C75.4584 13.75 80.1108 18.3508 80.1108 24.0342C80.1108 29.6789 75.4194 34.3183 69.7114 34.3183Z" fill="#E0001A"/>
<path d="M49.4983 29.4085H29.325C28.8168 29.4085 28.3867 28.9832 28.3867 28.4806C28.3867 27.978 28.8168 27.5527 29.325 27.5527H49.4983C50.0065 27.5527 50.4366 27.978 50.4366 28.4806C50.4757 28.9832 50.0456 29.4085 49.4983 29.4085Z" fill="#E0001A"/>
<path d="M63.0259 24.4212H33.8216C33.3134 24.4212 32.8833 23.9959 32.8833 23.4933C32.8833 22.9907 33.3134 22.5654 33.8216 22.5654H63.0259C63.5342 22.5654 63.9642 22.9907 63.9642 23.4933C63.9642 23.9959 63.5342 24.4212 63.0259 24.4212Z" fill="#E0001A"/>
<path d="M49.4205 19.4334H29.4036C28.8954 19.4334 28.4653 19.0081 28.4653 18.5055C28.4653 18.0029 28.8954 17.5776 29.4036 17.5776H49.4205C49.9288 17.5776 50.3588 18.0029 50.3588 18.5055C50.3979 19.0081 49.9679 19.4334 49.4205 19.4334Z" fill="#E0001A"/>
</svg>
