<svg width="27" height="19" viewBox="0 0 27 19" fill="none" xmlns="http://www.w3.org/2000/svg">
<path d="M0.791256 14.2381H8.75396C9.12578 14.2381 9.49368 14.2006 9.85788 14.1436C9.65992 13.416 9.54497 12.6544 9.54497 11.8651C9.54497 8.19856 11.8278 5.06107 15.044 3.78226C13.8424 1.51591 11.4632 0 8.75396 0C4.82833 0 1.63501 3.19332 1.63501 7.11895C1.63501 8.35718 1.9508 9.55545 2.55333 10.619L0.231983 12.8878C0.00559503 13.1142 -0.062383 13.4541 0.0603895 13.7499C0.182544 14.0457 0.471348 14.2381 0.791256 14.2381ZM7.91021 11.074C7.4735 11.074 7.11919 10.7199 7.11919 10.283C7.11919 9.8461 7.4735 9.492 7.91021 9.492C8.34712 9.492 8.70122 9.8461 8.70122 10.283C8.70122 10.7199 8.34712 11.074 7.91021 11.074ZM7.91021 3.16407C9.21868 3.16407 10.2833 4.22844 10.2833 5.53691C10.2833 6.42145 9.79649 7.22648 9.01413 7.63805C8.82709 7.73693 8.70122 7.9903 8.70122 8.26922C8.70122 8.70654 8.34753 9.06024 7.91021 9.06024C7.47309 9.06024 7.11919 8.70654 7.11919 8.26922C7.11919 7.39168 7.56352 6.61385 8.27708 6.23832C8.53911 6.10093 8.70122 5.8321 8.70122 5.53691C8.70122 5.10062 8.34671 4.7461 7.91021 4.7461C7.47391 4.7461 7.11919 5.10062 7.11919 5.53691C7.11919 5.97424 6.7655 6.32793 6.32817 6.32793C5.89105 6.32793 5.53715 5.97424 5.53715 5.53691C5.53715 4.22844 6.60173 3.16407 7.91021 3.16407Z" fill="#2B4279"/>
<path d="M11.127 11.865C11.127 15.7907 14.3203 18.9842 18.2461 18.9842H26.2088C26.5285 18.9842 26.8175 18.7918 26.9395 18.496C27.0624 18.2 26.9945 17.8601 26.7681 17.6339L24.4465 15.3651C25.0491 14.3013 25.3651 13.1033 25.3651 11.865C25.3651 7.93941 22.1717 4.74609 18.2461 4.74609C14.3203 4.74609 11.127 7.93941 11.127 11.865ZM17.4551 8.70097C17.4551 8.26385 17.8088 7.90996 18.2461 7.90996C18.6832 7.90996 19.0369 8.26385 19.0369 8.70097V11.865C19.0369 12.3024 18.6832 12.6561 18.2461 12.6561C17.8088 12.6561 17.4551 12.3024 17.4551 11.865V8.70097ZM18.2461 14.2381C18.6828 14.2381 19.0369 14.5922 19.0369 15.0291C19.0369 15.466 18.6828 15.8201 18.2461 15.8201C17.8092 15.8201 17.4551 15.466 17.4551 15.0291C17.4551 14.5922 17.8092 14.2381 18.2461 14.2381Z" fill="#FFA74A"/>
</svg>
