<svg width="66" height="60" viewBox="0 0 66 60" fill="none" xmlns="http://www.w3.org/2000/svg">
<path d="M55.2852 59.0227H9.76027C4.38005 59.0227 0 54.5978 0 49.1624C0 48.7094 0.379374 48.3262 0.827726 48.3262H64.2177C64.6661 48.3262 65.0455 48.7094 65.0455 49.1624C65.0455 54.5978 60.6654 59.0227 55.2852 59.0227ZM1.72443 49.9986C2.13829 54.11 5.58715 57.3155 9.76027 57.3155H55.2852C59.4583 57.3155 62.9072 54.11 63.321 49.9986H1.72443Z" fill="#E0001A"/>
<path d="M61.1824 49.9987H3.86239C3.41404 49.9987 3.03467 49.6155 3.03467 49.1625V16.7244C3.03467 14.8778 4.51768 13.3447 6.38006 13.3447H23.8658C24.3141 13.3447 24.6935 13.728 24.6935 14.1809C24.6935 14.6339 24.3141 15.0172 23.8658 15.0172H6.38006C5.44887 15.0172 4.72461 15.7837 4.72461 16.6896V48.2566H60.3547V16.7244C60.3547 15.7837 59.5959 15.052 58.6992 15.052H41.2135C40.7652 15.052 40.3858 14.6687 40.3858 14.2158C40.3858 13.7628 40.7652 13.3796 41.2135 13.3796H58.6992C60.5271 13.3796 62.0446 14.8778 62.0446 16.7593V49.1625C62.0101 49.6155 61.6308 49.9987 61.1824 49.9987Z" fill="#E0001A"/>
<path d="M55.5269 45.0161H9.51913C9.07078 45.0161 8.69141 44.6328 8.69141 44.1799V19.5464C8.69141 19.0935 9.07078 18.7102 9.51913 18.7102H25.2804C25.7288 18.7102 26.1081 19.0935 26.1081 19.5464C26.1081 19.9994 25.7288 20.3826 25.2804 20.3826H10.3813V43.3437H54.6992V20.3826H39.9725C39.5242 20.3826 39.1448 19.9994 39.1448 19.5464C39.1448 19.0935 39.5242 18.7102 39.9725 18.7102H55.5269C55.9752 18.7102 56.3546 19.0935 56.3546 19.5464V44.1799C56.3546 44.6328 55.9752 45.0161 55.5269 45.0161Z" fill="#E0001A"/>
<path d="M41.0763 54.4932H23.97C21.8662 54.4932 20.1763 52.786 20.1763 50.6606V49.1624C20.1763 48.7094 20.5556 48.3262 21.004 48.3262H44.0424C44.4907 48.3262 44.8701 48.7094 44.8701 49.1624V50.6606C44.8701 52.786 43.1801 54.4932 41.0763 54.4932ZM21.8317 49.9986V50.6606C21.8317 51.8452 22.7974 52.8208 23.97 52.8208H41.0419C42.2145 52.8208 43.1801 51.8452 43.1801 50.6606V49.9986H21.8317Z" fill="#E0001A"/>
<path d="M42.3867 36.5147H22.6593C22.2109 36.5147 21.8315 36.1314 21.8315 35.6785V31.6019C21.8315 27.8041 23.8664 24.2154 27.1083 22.2991C27.5222 22.0552 28.005 22.1945 28.2464 22.6126C28.4878 22.9959 28.3499 23.5185 27.936 23.7624C25.1769 25.4 23.487 28.3965 23.487 31.6368V34.8423H41.5245V31.6019C41.5245 28.3965 39.8346 25.3652 37.0755 23.7276C36.6961 23.4837 36.5582 22.9611 36.7651 22.5778C37.041 22.1945 37.5583 22.0552 37.9377 22.2991C41.1796 24.2502 43.2145 27.8041 43.2145 31.6019V35.6785C43.2145 36.1663 42.8351 36.5147 42.3867 36.5147Z" fill="#E0001A"/>
<path d="M32.5229 20.3826C29.3155 20.3826 26.6943 17.7346 26.6943 14.4943C26.6943 11.254 29.3155 8.60596 32.5229 8.60596C35.7303 8.60596 38.3515 11.254 38.3515 14.4943C38.3515 17.7346 35.7303 20.3826 32.5229 20.3826ZM32.5229 10.2784C30.2467 10.2784 28.3498 12.1599 28.3498 14.4943C28.3498 16.7939 30.2122 18.7102 32.5229 18.7102C34.8336 18.7102 36.696 16.8287 36.696 14.4943C36.696 12.1599 34.8336 10.2784 32.5229 10.2784Z" fill="#E0001A"/>
<path d="M32.5226 6.5155C32.0742 6.5155 31.6948 6.13223 31.6948 5.67928V0.836213C31.6948 0.383264 32.0742 0 32.5226 0C32.9709 0 33.3503 0.383264 33.3503 0.836213V5.67928C33.3503 6.13223 32.9709 6.5155 32.5226 6.5155Z" fill="#E0001A"/>
<path d="M39.1792 9.68615C38.9378 9.68615 38.6964 9.58162 38.5239 9.37257C38.2135 9.02415 38.2825 8.50151 38.6274 8.18793L42.2832 5.08698C42.628 4.77339 43.1454 4.84308 43.4558 5.1915C43.7662 5.53992 43.6972 6.06256 43.3523 6.37614L39.6965 9.4771C39.5586 9.61647 39.3861 9.68615 39.1792 9.68615Z" fill="#E0001A"/>
<path d="M25.8667 9.68615C25.6943 9.68615 25.4873 9.61647 25.3149 9.4771L21.6591 6.37614C21.3142 6.06256 21.2452 5.53992 21.5556 5.1915C21.866 4.84308 22.3834 4.77339 22.7283 5.08698L26.384 8.18793C26.7289 8.50151 26.7979 9.02415 26.4875 9.37257C26.3151 9.58162 26.0737 9.68615 25.8667 9.68615Z" fill="#E0001A"/>
<path d="M47.1801 36.5147H17.8648C17.4165 36.5147 17.0371 36.1314 17.0371 35.6785C17.0371 35.2255 17.4165 34.8423 17.8648 34.8423H47.1801C47.6285 34.8423 48.0078 35.2255 48.0078 35.6785C48.0078 36.1663 47.6285 36.5147 47.1801 36.5147Z" fill="#E0001A"/>
<path d="M50.5257 40.4517H14.5196C14.0713 40.4517 13.6919 40.0685 13.6919 39.6155C13.6919 39.1626 14.0713 38.7793 14.5196 38.7793H50.5257C50.974 38.7793 51.3534 39.1626 51.3534 39.6155C51.3534 40.0685 50.974 40.4517 50.5257 40.4517Z" fill="#E0001A"/>
</svg>
