<svg width="16" height="17" viewBox="0 0 16 17" fill="none" xmlns="http://www.w3.org/2000/svg">
<path d="M15.9375 16.502V12.4844C15.9375 12.2093 15.7145 11.9863 15.4395 11.9863H7.96875V17H15.4395C15.7145 17 15.9375 16.777 15.9375 16.502ZM11.9531 14.4766C11.678 14.4766 11.4551 14.2536 11.4551 13.9785C11.4551 13.7034 11.678 13.4805 11.9531 13.4805C12.2282 13.4805 12.4512 13.7034 12.4512 13.9785C12.4512 14.2536 12.2282 14.4766 11.9531 14.4766Z" fill="#2B4279"/>
<path d="M13.9453 7.50391C13.9453 7.77913 14.1681 8.00195 14.4434 8.00195C14.7186 8.00195 14.9414 7.77913 14.9414 7.50391V6.00977H15.4395C15.7147 6.00977 15.9375 5.78694 15.9375 5.51172V0.498047C15.9375 0.222824 15.7147 0 15.4395 0H14.8558C14.1831 0 13.5279 0.190788 12.9492 0.52256V6.74062C13.2408 6.4855 13.5819 6.29627 13.9453 6.1715V7.50391Z" fill="#2B4279"/>
<path d="M9.46289 6.00977H10.0465C10.7474 6.00977 11.4272 6.28032 11.9531 6.74062V0.52256C11.3744 0.190918 10.7193 0 10.0465 0H9.46289C9.18767 0 8.96484 0.222824 8.96484 0.498047V5.51172C8.96484 5.78694 9.18767 6.00977 9.46289 6.00977Z" fill="#2B4279"/>
<path d="M0.498047 17H6.97266V16.502C6.97266 15.6768 6.30367 14.9746 5.47852 14.9746H2.49023C2.21514 14.9746 1.99219 14.7517 1.99219 14.4766V11.4883C1.99219 11.2132 2.21514 10.9902 2.49023 10.9902C2.76533 10.9902 2.98828 11.2132 2.98828 11.4883V13.9785H5.47852C6.0418 13.9785 6.55541 14.1725 6.97266 14.4878V11.4883C6.97266 11.2131 7.19548 10.9902 7.4707 10.9902H10.9066C10.6752 9.85497 9.66924 8.99805 8.4668 8.99805H7.9004C7.88873 9.0092 7.88081 9.02295 7.86901 9.0341C7.78782 9.24616 7.65942 9.4363 7.49068 9.58805L6.53155 10.5491C6.29264 10.8162 5.89576 10.9902 5.47852 10.9902C5.06127 10.9902 4.66439 10.8162 4.39046 10.5122L3.42939 9.55303C3.28062 9.4197 3.16039 9.23734 3.08361 9.03021C3.0731 9.02036 3.0661 9.00803 3.05573 8.99805H2.49023C1.11723 8.99805 0 10.1153 0 11.4883V16.502C0 16.7772 0.222824 17 0.498047 17Z" fill="#FFA74A"/>
<path d="M3.98438 8.48872V8.5C3.98438 8.62944 4.03418 8.75901 4.13379 8.84863C4.23353 8.94824 5.22962 9.94434 5.12988 9.84473C5.21951 9.94434 5.34908 9.99414 5.47852 9.99414C5.60796 9.99414 5.73753 9.94434 5.82715 9.84473C5.92676 9.74499 6.92285 8.74889 6.82324 8.84863C6.92285 8.75901 6.97266 8.62944 6.97266 8.5V8.48872C7.57407 8.03412 7.96875 7.31986 7.96875 6.50781V5.51172C7.96875 4.13638 6.85385 3.02148 5.47852 3.02148C4.10318 3.02148 2.98828 4.13638 2.98828 5.51172V6.50781C2.98828 7.31986 3.38296 8.03412 3.98438 8.48872Z" fill="#FFA74A"/>
</svg>
