<svg width="26" height="26" viewBox="0 0 26 26" fill="none" xmlns="http://www.w3.org/2000/svg">
<circle cx="13" cy="13" r="12" fill="white" stroke="#FECD22" stroke-width="2"/>
<path d="M18.1429 12.2812H14.2857V8.625C14.2857 8.17635 13.9019 7.8125 13.4286 7.8125H12.5714C12.0981 7.8125 11.7143 8.17635 11.7143 8.625V12.2812H7.85714C7.38384 12.2812 7 12.6451 7 13.0938V13.9062C7 14.3549 7.38384 14.7188 7.85714 14.7188H11.7143V18.375C11.7143 18.8237 12.0981 19.1875 12.5714 19.1875H13.4286C13.9019 19.1875 14.2857 18.8237 14.2857 18.375V14.7188H18.1429C18.6162 14.7188 19 14.3549 19 13.9062V13.0938C19 12.6451 18.6162 12.2812 18.1429 12.2812Z" fill="#2B4279"/>
</svg>
