<svg xmlns="http://www.w3.org/2000/svg" width="61" height="90" viewBox="0 0 61 90">
  <g id="Group_3448" data-name="Group 3448" transform="translate(-120 -136)">
    <rect id="Rectangle_1854" data-name="Rectangle 1854" width="61" height="45" transform="translate(120 136)" fill="#b1b1b1"/>
    <path id="Path_687" data-name="Path 687" d="M21.1,9.2,11.793.188a.669.669,0,0,0-.93,0L1.556,9.2a.669.669,0,0,0,.465,1.149H4.356v9.043a.669.669,0,0,0,.669.669H8.479V13.177a.669.669,0,0,1,.669-.669h4.361a.669.669,0,0,1,.669.669v6.881h3.454a.669.669,0,0,0,.669-.669V10.346h2.335A.669.669,0,0,0,21.1,9.2Z" transform="translate(139.648 148)" fill="#fff"/>
    <rect id="Rectangle_1854-2" data-name="Rectangle 1854" width="61" height="45" transform="translate(120 181)" fill="#72bf44"/>
    <path id="Path_687-2" data-name="Path 687" d="M21.1,9.2,11.793.188a.669.669,0,0,0-.93,0L1.556,9.2a.669.669,0,0,0,.465,1.149H4.356v9.043a.669.669,0,0,0,.669.669H8.479V13.177a.669.669,0,0,1,.669-.669h4.361a.669.669,0,0,1,.669.669v6.881h3.454a.669.669,0,0,0,.669-.669V10.346h2.335A.669.669,0,0,0,21.1,9.2Z" transform="translate(139.648 193)" fill="#fff"/>
  </g>
</svg>
