<svg xmlns="http://www.w3.org/2000/svg" width="20.911" height="18.734" viewBox="0 0 20.911 18.734">
  <g id="Group_1816" data-name="Group 1816" transform="translate(-194 -226)">
    <path id="Path_996" data-name="Path 996" d="M287.935,230.3a4.3,4.3,0,1,1-4.3-4.3,4.3,4.3,0,0,1,4.3,4.3Zm0,0" transform="translate(-81.891 0)" fill="#f9f9f9"/>
    <path id="Path_997" data-name="Path 997" d="M206.864,487.121a4.828,4.828,0,0,1,1.668-3.655A4.079,4.079,0,0,0,205.4,482h-7.312A4.091,4.091,0,0,0,194,486.086V489.1a.645.645,0,0,0,.645.645h12.989A4.817,4.817,0,0,1,206.864,487.121Z" transform="translate(0 -245.677)" fill="#f9f9f9"/>
    <circle id="Ellipse_35" data-name="Ellipse 35" cx="3.52" cy="3.52" r="3.52" transform="translate(207.872 237.694)" fill="#ffb929"/>
    <g id="Group_1815" data-name="Group 1815" transform="translate(209.529 239.39)">
      <path id="Path_998" data-name="Path 998" d="M580.595,560.418h-1.5v-.868h1.5v-1.49h.888v1.49h1.5v.868h-1.5v1.439h-.888Z" transform="translate(-579.094 -558.06)" fill="#fff"/>
    </g>
  </g>
</svg>
