<svg xmlns="http://www.w3.org/2000/svg" xmlns:xlink="http://www.w3.org/1999/xlink" width="21" height="20" viewBox="0 0 21 20">
  <defs>
    <clipPath id="clip-path">
      <rect id="Rectangle_1817" data-name="Rectangle 1817" width="21" height="20" transform="translate(0 0.018)" fill="#72bf44"/>
    </clipPath>
  </defs>
  <g id="Group_1313" data-name="Group 1313" transform="translate(-704 -295.121)">
    <g id="Group_1312" data-name="Group 1312" transform="translate(704 295.103)">
      <g id="Group_1311" data-name="Group 1311" transform="translate(0 0)" clip-path="url(#clip-path)">
        <path id="Path_430" data-name="Path 430" d="M715.639,555.957a2.806,2.806,0,0,1,1.724-2.586v-.216a3.408,3.408,0,0,1,.337-1.461,4.074,4.074,0,0,0-2.277-.694h-7.328A4.1,4.1,0,0,0,704,555.1v3.017a.647.647,0,0,0,.647.647h10.992Zm0,0" transform="translate(-704 -540.573)" fill="#72bf44"/>
        <path id="Path_431" data-name="Path 431" d="M797.953,299.311A4.311,4.311,0,1,1,793.643,295a4.311,4.311,0,0,1,4.311,4.311Zm0,0" transform="translate(-785.884 -294.918)" fill="#72bf44"/>
      </g>
    </g>
    <path id="Path_432" data-name="Path 432" d="M1030.251,636.332h-4.742a1.51,1.51,0,0,0-1.509,1.509v3.017a1.51,1.51,0,0,0,1.509,1.509h4.742a1.51,1.51,0,0,0,1.509-1.509v-3.017a1.51,1.51,0,0,0-1.509-1.509Zm0,0" transform="translate(-307.068 -327.353)" fill="#ffc107"/>
    <path id="Path_433" data-name="Path 433" d="M1068.823,551a2.158,2.158,0,0,0-2.155,2.155v1.293h1.293v-1.293a.862.862,0,0,1,1.724,0v1.293h1.293v-1.293a2.158,2.158,0,0,0-2.155-2.155Zm0,0" transform="translate(-348.012 -245.47)" fill="#72bf44"/>
  </g>
</svg>
