<svg xmlns="http://www.w3.org/2000/svg" width="114" height="49" viewBox="0 0 114 49">
  <g id="Group_2083" data-name="Group 2083" transform="translate(-1003 -2194)">
    <g id="Group_1549" data-name="Group 1549" transform="translate(139 2174)">
      <g id="btn-login" transform="translate(-250.991 1)">
        <rect id="Rectangle_1816" data-name="Rectangle 1816" width="114" height="49" rx="5" transform="translate(1114.991 19)" fill="#f5f5f5"/>
      </g>
      <text id="FAQ" transform="translate(924 46)" fill="#272727" font-size="22" font-family="Kanit-Regular, Kanit"><tspan x="0" y="0">FAQ</tspan></text>
      <g id="Group_1552" data-name="Group 1552" transform="translate(873 26)">
        <path id="Path_674" data-name="Path 674" d="M167.668,218.771v12.584a1.885,1.885,0,0,1-1.888,1.888H143.129a1.885,1.885,0,0,1-1.888-1.888V218.771a1.885,1.885,0,0,1,1.888-1.888h16.36l3.958-4.851a.631.631,0,0,1,1.076.447v4.4h1.258a1.885,1.885,0,0,1,1.888,1.888Z" transform="translate(-131.173 -196.748)" fill="#95a5a5"/>
        <path id="Path_675" data-name="Path 675" d="M311.468,441.348v1.2a1.3,1.3,0,0,1-.839,1.252,1.264,1.264,0,0,1-1.679-1.188V441.35Z" transform="translate(-286.928 -409.889)" fill="#ecf0f1"/>
        <g id="Group_1550" data-name="Group 1550" transform="translate(15.101 23.211)">
          <path id="Path_676" data-name="Path 676" d="M212.488,363.191h1.258a.629.629,0,1,0,0-1.258h-1.259a.629.629,0,1,0,0,1.258Z" transform="translate(-211.858 -359.343)" fill="#e4c05c"/>
          <path id="Path_677" data-name="Path 677" d="M218.791,327.034l1.183.429a.629.629,0,1,0,.429-1.183l-1.183-.429a.629.629,0,0,0-.43,1.183Z" transform="translate(-217.913 -325.8)" fill="#e4c05c"/>
          <path id="Path_678" data-name="Path 678" d="M220.009,392.249l-1.182.431a.629.629,0,0,0,.431,1.182l1.182-.431a.629.629,0,1,0-.431-1.182Z" transform="translate(-217.946 -387.465)" fill="#e4c05c"/>
          <path id="Path_679" data-name="Path 679" d="M408.011,361.913h-1.259a.629.629,0,0,0,0,1.258h1.259a.629.629,0,1,0,0-1.258Z" transform="translate(-392.28 -359.327)" fill="#e4c05c"/>
          <path id="Path_680" data-name="Path 680" d="M401.482,327.319a.635.635,0,0,0,.216-.038l1.182-.431a.629.629,0,0,0-.431-1.182l-1.182.431a.629.629,0,0,0,.216,1.221Z" transform="translate(-387.382 -325.629)" fill="#e4c05c"/>
          <path id="Path_681" data-name="Path 681" d="M402.955,392.539l-1.183-.43a.629.629,0,0,0-.43,1.183l1.183.429a.629.629,0,0,0,.43-1.183Z" transform="translate(-387.453 -387.336)" fill="#e4c05c"/>
        </g>
        <path id="Path_682" data-name="Path 682" d="M26.427,1.888V14.472A1.885,1.885,0,0,1,24.54,16.36H8.18L4.222,21.211a.631.631,0,0,1-1.076-.447v-4.4H1.888A1.885,1.885,0,0,1,0,14.472V1.888A1.885,1.885,0,0,1,1.888,0H24.54a1.885,1.885,0,0,1,1.888,1.888Z" transform="translate(0 0)" fill="#71c285"/>
        <path id="Path_683" data-name="Path 683" d="M281.187,320.95a3.769,3.769,0,0,1-1.354,3.542,1.275,1.275,0,0,0-.486.989v.483a.629.629,0,0,1-.629.629H276.2a.629.629,0,0,1-.629-.629v-.485a1.25,1.25,0,0,0-.473-.977,3.775,3.775,0,1,1,6.088-3.552Z" transform="translate(-254.178 -295.132)" fill="#e4c05c"/>
        <path id="Path_684" data-name="Path 684" d="M319.794,346.81a.629.629,0,0,1-.629-.629.63.63,0,0,0-.629-.629h0a.629.629,0,1,1,0-1.258h0a1.89,1.89,0,0,1,1.888,1.886.629.629,0,0,1-.629.63Z" transform="translate(-295.245 -319.753)" fill="#f9eab0"/>
        <g id="Group_1551" data-name="Group 1551" transform="translate(8.18 1.888)">
          <path id="Path_685" data-name="Path 685" d="M119.164,36.553a.629.629,0,0,1-.629-.629v-.678A1.262,1.262,0,0,1,119.615,34a3.147,3.147,0,1,0-3.6-3.114.629.629,0,0,1-1.258,0,4.4,4.4,0,1,1,5.034,4.36v.674A.629.629,0,0,1,119.164,36.553Z" transform="translate(-114.759 -26.485)" fill="#ecf0f1"/>
          <path id="Path_686" data-name="Path 686" d="M168.353,186.677a.662.662,0,0,1-.447-.182l-.076-.094a.477.477,0,0,1-.057-.113.4.4,0,0,1-.037-.113.827.827,0,0,1-.013-.126.628.628,0,0,1,.05-.239.727.727,0,0,1,.132-.207.648.648,0,0,1,.207-.132.632.632,0,0,1,.478,0,.569.569,0,0,1,.34.34.63.63,0,0,1,.05.239.875.875,0,0,1-.013.126.411.411,0,0,1-.038.113.48.48,0,0,1-.057.113l-.075.094a.733.733,0,0,1-.208.132A.526.526,0,0,1,168.353,186.677Z" transform="translate(-163.949 -174.093)" fill="#ecf0f1"/>
        </g>
      </g>
    </g>
    <text id="สอบถาม" transform="translate(1063 2234)" fill="#7d7979" font-size="11" font-family="Kanit-Regular, Kanit"><tspan x="0" y="0">สอบถาม</tspan></text>
  </g>
</svg>
