<svg id="hotline" xmlns="http://www.w3.org/2000/svg" width="114" height="52" viewBox="0 0 114 52">
  <g id="Group_1374" data-name="Group 1374" transform="translate(-864 -18)">
    <g id="btn-login" transform="translate(-250.991 1)">
      <rect id="Rectangle_1816" data-name="Rectangle 1816" width="114" height="49" rx="5" transform="translate(1114.991 19)" fill="#f5f5f5"/>
    </g>
    <g id="Group_1455" data-name="Group 1455" transform="translate(-4)">
      <g id="Group_1365" data-name="Group 1365" transform="translate(146.185 -1525.39)">
        <g id="Group_1364" data-name="Group 1364" transform="translate(727.815 1553.779)">
          <path id="Path_500" data-name="Path 500" d="M764.767,1608.732l-4.131,2.456a8.754,8.754,0,0,1-8.875.043A59.6,59.6,0,0,1,729,1588.47a8.734,8.734,0,0,1,.048-8.87l2.451-4.135a2.027,2.027,0,0,1,1.489-.975l3.212-.395a2.006,2.006,0,0,1,1.918.871l4.939,7.281a2.013,2.013,0,0,1-.347,2.651l-2.727,2.384-.228.2a1.348,1.348,0,0,0-.285,1.694,29.087,29.087,0,0,0,11.587,11.587,1.348,1.348,0,0,0,1.694-.285l.2-.228,2.384-2.727a2.019,2.019,0,0,1,2.651-.348l7.281,4.94a2.006,2.006,0,0,1,.871,1.917l-.4,3.212A2.027,2.027,0,0,1,764.767,1608.732Z" transform="translate(-727.815 -1574.078)" fill="#72bf44"/>
          <path id="Path_501" data-name="Path 501" d="M762.914,1584.677l-2.672,2.336a101.173,101.173,0,0,1-8.313-11.577,1.987,1.987,0,0,1,1.459-.956l3.147-.387a1.965,1.965,0,0,1,1.879.853l4.84,7.134A1.973,1.973,0,0,1,762.914,1584.677Zm22.566,21.895.387-3.147a1.965,1.965,0,0,0-.853-1.879l-7.134-4.84a1.979,1.979,0,0,0-2.6.34l-2.336,2.672a101.156,101.156,0,0,0,11.577,8.313A1.987,1.987,0,0,0,785.48,1606.572Z" transform="translate(-747.544 -1574.078)" fill="#60b130"/>
          <path id="Path_502" data-name="Path 502" d="M729.047,1609.837l.04-.066a8.2,8.2,0,0,0,.95,6.178,67.4,67.4,0,0,0,9.8,12.54,69.015,69.015,0,0,0,12.926,9.5,8.976,8.976,0,0,0,8.863-.041l4.125-2.378c.027-.016.048-.038.074-.055l-.138,1.091a1.961,1.961,0,0,1-.974,1.442l-4.125,2.378a8.976,8.976,0,0,1-8.863.041,69.032,69.032,0,0,1-12.926-9.5,67.413,67.413,0,0,1-9.8-12.54A8.239,8.239,0,0,1,729.047,1609.837Z" transform="translate(-727.815 -1603.281)" opacity="0.09" style="mix-blend-mode: multiply;isolation: isolate"/>
          <path id="Path_503" data-name="Path 503" d="M816.828,1710.626a4.793,4.793,0,0,1-1.05-.478c-1.3-.769-2.575-1.61-3.8-2.5a.823.823,0,0,1,.966-1.332c1.185.86,2.422,1.673,3.674,2.417a3.3,3.3,0,0,0,.7.321,3.183,3.183,0,0,0,3.364-.951l2.392-2.746a1.987,1.987,0,0,1,2.613-.338l.66.447a.822.822,0,0,1-.922,1.362l-.661-.448a.339.339,0,0,0-.45.058l-2.4,2.75a4.9,4.9,0,0,1-3.664,1.652A4.824,4.824,0,0,1,816.828,1710.626Zm12.151-1.383-1.211-.821a.822.822,0,0,1,.922-1.362l1.211.821a.822.822,0,0,1-.462,1.5A.814.814,0,0,1,828.979,1709.244Zm-21.614-5.406-.13-.129a47.579,47.579,0,0,1-3.485-4.174.822.822,0,1,1,1.319-.981,46,46,0,0,0,3.343,4.006l.108.107a.822.822,0,1,1-1.155,1.17Z" transform="translate(-797.097 -1680.631)" fill="#fff" opacity="0.7" style="mix-blend-mode: lighten;isolation: isolate"/>
        </g>
        <path id="Path_504" data-name="Path 504" d="M862.428,1574.692a1.223,1.223,0,0,1-.965-1.434,18.075,18.075,0,0,0-21.208-21.21,1.222,1.222,0,0,1-.469-2.4,20.521,20.521,0,0,1,24.076,24.077,1.221,1.221,0,0,1-1.2.988A1.256,1.256,0,0,1,862.428,1574.692Zm-5.337-.984a1.222,1.222,0,0,1-.958-1.439,12.8,12.8,0,0,0,.246-2.5,12.65,12.65,0,0,0-15.136-12.393,1.222,1.222,0,0,1-.48-2.4,15.1,15.1,0,0,1,17.765,17.766,1.225,1.225,0,0,1-1.438.959Zm-5.516-1.019a1.222,1.222,0,0,1-.943-1.449,7.048,7.048,0,0,0-8.313-8.369,1.223,1.223,0,0,1-.492-2.4,9.5,9.5,0,0,1,11.2,11.272,1.223,1.223,0,0,1-1.195.968A1.187,1.187,0,0,1,851.574,1572.688Z" transform="translate(-94.09 -0.488)" fill="#ffb929"/>
      </g>
    </g>
    <text id="สายด่วน" transform="translate(920 35)" fill="#353e43" font-size="15" font-family="Kanit-Regular, Kanit"><tspan x="0" y="0">สายด่วน</tspan></text>
    <text id="กด_1" data-name="กด 1" transform="translate(945 65)" fill="#0059b3" font-size="13" font-family="Kanit-Regular, Kanit"><tspan x="0" y="0">กด 1</tspan></text>
  </g>
  <text id="_7420" data-name="7420" transform="translate(56 36)" fill="#ff5722" font-size="22" font-family="Kanit-SemiBold, Kanit" font-weight="600" letter-spacing="0.04em"><tspan x="0" y="0">7420</tspan></text>
</svg>
