<svg xmlns="http://www.w3.org/2000/svg" xmlns:xlink="http://www.w3.org/1999/xlink" width="114" height="54" viewBox="0 0 114 54">
  <defs>
    <clipPath id="clip-path">
      <rect id="Rectangle_1845" data-name="Rectangle 1845" width="38" height="38" transform="translate(0 0.349)" fill="none"/>
    </clipPath>
  </defs>
  <g id="Group_2087" data-name="Group 2087" transform="translate(-2932 1252)">
    <g id="btn-login" transform="translate(1817.009 -1269)">
      <rect id="Rectangle_1816" data-name="Rectangle 1816" width="114" height="49" rx="5" transform="translate(1114.991 19)" fill="#f5f5f5"/>
    </g>
    <g id="Group_2086" data-name="Group 2086" transform="translate(0 -2)">
      <text id="IT_" data-name="IT " transform="translate(2987 -1224)" fill="#353e43" font-size="24" font-family="Kanit-Regular, Kanit"><tspan x="0" y="0">IT </tspan></text>
      <text id="Call_Center_" data-name="Call 
Center " transform="translate(3009 -1233)" fill="#7d7979" font-size="10" font-family="Kanit-Regular, Kanit"><tspan x="0" y="0">Call </tspan><tspan x="0" y="8">Center </tspan></text>
      <text id="_7420" data-name="7420" transform="translate(2988 -1205)" fill="#ff5722" font-size="22" font-family="Kanit-SemiBold, Kanit" font-weight="600" letter-spacing="0.04em"><tspan x="0" y="0">7420</tspan></text>
    </g>
    <g id="Group_1548" data-name="Group 1548" transform="translate(2665 -1519.854)">
      <path id="Path_659" data-name="Path 659" d="M514.663,291.944a8.509,8.509,0,0,0-.9-.313l-.433-3.017H512v-5.5a4.658,4.658,0,0,1,.666-8.033v4.21l2,.666,2-.666v-4.21a4.658,4.658,0,0,1,.666,8.033v7.86l-1.832,1.373a8.672,8.672,0,0,0-.833-.4Zm0,0" transform="translate(-208.023 -0.071)" fill="#c6c5ca"/>
      <rect id="Rectangle_1843" data-name="Rectangle 1843" width="3" height="9" transform="translate(305 282.854)" fill="#898890"/>
      <path id="Path_660" data-name="Path 660" d="M439.63,410.755a8.362,8.362,0,0,1-.713,1.732l1.825,2.431-2.824,2.824-2.431-1.825a8.361,8.361,0,0,1-1.732.713l-.433,3.017h-4l-.433-3.017a8.36,8.36,0,0,1-1.732-.713l-2.431,1.825-2.824-2.824,1.825-2.431a8.36,8.36,0,0,1-.713-1.732L420,410.322v-4l3.017-.433a8.359,8.359,0,0,1,.713-1.732L421.9,401.73l2.824-2.825,1.465,1.1.966.726a8.683,8.683,0,0,1,.833-.4,8.519,8.519,0,0,1,.9-.313l.433-3.017h4l.433,3.017a8.521,8.521,0,0,1,.9.313,8.676,8.676,0,0,1,.833.4l1.832-1.373.6-.453,2.824,2.825-1.825,2.431a8.361,8.361,0,0,1,.713,1.732l3.017.433v4Zm0,0" transform="translate(-128.014 -108.458)" fill="#ff9811"/>
      <rect id="Rectangle_1844" data-name="Rectangle 1844" width="1" height="3" transform="translate(294 298.854)" fill="#cc7400"/>
      <path id="Path_661" data-name="Path 661" d="M482.659,452.172a5.333,5.333,0,0,0-2.664-1.132,5.52,5.52,0,0,0-.666-.04,5.329,5.329,0,0,0,0,10.658,5.5,5.5,0,0,0,1.332-.167,5.329,5.329,0,0,0,2-9.319Zm0,0" transform="translate(-176.019 -156.463)" fill="#ffd422"/>
      <g id="Group_1547" data-name="Group 1547" transform="translate(276 275.505)">
        <g id="Group_1546" data-name="Group 1546" transform="translate(0 0)" clip-path="url(#clip-path)">
          <path id="Path_662" data-name="Path 662" d="M530.664,400.33v3.837A5.332,5.332,0,0,0,528,403.035V397h1.332l.433,3.017a8.527,8.527,0,0,1,.9.313Zm0,0" transform="translate(-500.024 -383.962)" fill="#ff9811"/>
          <path id="Path_663" data-name="Path 663" d="M300.386,498.115a6.619,6.619,0,0,0-3.264-2.791l-5.136-2.059L291.32,493a2.664,2.664,0,0,1-5.329,0l-5.8,2.325a6.649,6.649,0,0,0-4.19,6.181v6.148h25.312v-6.148a6.656,6.656,0,0,0-.926-3.391Zm0,0" transform="translate(-276 -469.305)" fill="#3d9ae2"/>
        </g>
      </g>
      <path id="Path_664" data-name="Path 664" d="M371.329,475.961v1.892a2.664,2.664,0,1,1-5.329,0v-1.892a6.624,6.624,0,0,0,5.329,0Zm0,0" transform="translate(-80.008 -178.653)" fill="#ffc477"/>
      <path id="Path_665" data-name="Path 665" d="M371.329,475.961v1.332a6.624,6.624,0,0,1-5.329,0v-1.332a6.624,6.624,0,0,0,5.329,0Zm0,0" transform="translate(-80.008 -178.653)" fill="#ffb655"/>
      <path id="Path_666" data-name="Path 666" d="M343.322,326.507v.486h-.666a2.664,2.664,0,0,1-2.131-1.066l-1.2-1.6-2.238,1.792a3.983,3.983,0,0,1-2.491.872H330v-1.332a6.661,6.661,0,0,1,13.322,0Zm0,0" transform="translate(-48.005 -39.117)" fill="#57565c"/>
      <path id="Path_667" data-name="Path 667" d="M342.656,369.664a2.664,2.664,0,0,1-2.131-1.066l-1.2-1.6-2.238,1.792a3.983,3.983,0,0,1-2.491.872H330v3.331c0,.16.007.32.02.473a6.655,6.655,0,0,0,11.963,3.523A5.616,5.616,0,0,0,342.6,376a6.53,6.53,0,0,0,.686-2.324v-.007a1.907,1.907,0,0,0,.013-.2c.013-.154.02-.313.02-.473v-3.331Zm0,0" transform="translate(-48.005 -81.788)" fill="#ffc477"/>
      <rect id="Rectangle_1846" data-name="Rectangle 1846" width="2" height="7" transform="translate(295 306.854)" fill="#1e81ce"/>
      <rect id="Rectangle_1847" data-name="Rectangle 1847" width="1" height="7" transform="translate(281 306.854)" fill="#1e81ce"/>
      <path id="Path_668" data-name="Path 668" d="M324.651,300.324h-1.332v-2a7.993,7.993,0,1,0-15.986,0v2H306v-2a9.325,9.325,0,0,1,18.651,0Zm0,0" transform="translate(-26.669 -12.448)" fill="#ff9811"/>
      <path id="Path_669" data-name="Path 669" d="M397.327,425.663H390v-1.332h7.327a.666.666,0,0,0,.666-.666V421h1.332v2.664a2,2,0,0,1-2,2Zm0,0" transform="translate(-101.344 -129.793)" fill="#ee8700"/>
      <rect id="Rectangle_1848" data-name="Rectangle 1848" width="1" height="1" transform="translate(285 289.854)" fill="#ee8700"/>
      <rect id="Rectangle_1849" data-name="Rectangle 1849" width="1" height="1" transform="translate(292 289.854)" fill="#ee8700"/>
      <rect id="Rectangle_1850" data-name="Rectangle 1850" width="1" height="1" transform="translate(303 290.854)" fill="#cc7400"/>
      <rect id="Rectangle_1851" data-name="Rectangle 1851" width="1" height="1" transform="translate(303 307.854)" fill="#cc7400"/>
      <path id="Path_670" data-name="Path 670" d="M568.6,546.617l.942-.941.942.941-.942.942Zm0,0" transform="translate(-260.115 -240.628)" fill="#cc7400"/>
      <rect id="Rectangle_1852" data-name="Rectangle 1852" width="2" height="3" transform="translate(311 298.854)" fill="#cc7400"/>
      <path id="Path_671" data-name="Path 671" d="M568.613,436.321l.942-.942.942.942-.942.942Zm0,0" transform="translate(-260.128 -142.576)" fill="#cc7400"/>
      <path id="Path_672" data-name="Path 672" d="M451.838,385h-1.332a1.33,1.33,0,0,0-.666.18V389c0,.16-.007.32-.02.473a.765.765,0,0,0,.127.066,1.321,1.321,0,0,0,.559.127h1.332a1.292,1.292,0,0,0,.866-.327,1.313,1.313,0,0,0,.466-1.006v-2A1.336,1.336,0,0,0,451.838,385Zm0,0" transform="translate(-154.523 -97.79)" fill="#ee8700"/>
      <path id="Path_673" data-name="Path 673" d="M303.33,389c0,.16.007.32.02.473a1.267,1.267,0,0,1-.686.193h-1.332A1.336,1.336,0,0,1,300,388.33v-2A1.336,1.336,0,0,1,301.332,385h1.332a1.33,1.33,0,0,1,.666.18Zm0,0" transform="translate(-21.336 -97.79)" fill="#ee8700"/>
    </g>
  </g>
</svg>
