<svg xmlns="http://www.w3.org/2000/svg" width="187.445" height="66" viewBox="0 0 187.445 66">
  <g id="Group_2084" data-name="Group 2084" transform="translate(-141 -7)">
    <g id="Group_1317" data-name="Group 1317" transform="translate(0 -12)">
      <g id="Component_2" data-name="Component 2" transform="translate(141 19)">
        <text id="e-" transform="translate(0 33)" fill="#6ac9c8" font-size="31" font-family="Poppins-Regular, Poppins" letter-spacing="0.1em"><tspan x="0" y="0">e-</tspan></text>
        <text id="Learning" transform="translate(36 33)" fill="#72bf44" font-size="31" font-family="Poppins-Bold, Poppins" font-weight="700"><tspan x="0" y="0">Learning</tspan></text>
      </g>
      <g id="Group_1316" data-name="Group 1316" transform="translate(-127.557 3562.532)">
        <rect id="Rectangle_1818" data-name="Rectangle 1818" width="52" height="21" rx="3" transform="translate(392.557 -3498.532)" fill="#ff5722"/>
        <text id="System" transform="translate(399.557 -3483.532)" fill="#fff" font-size="12" font-family="Kanit-Regular, Kanit"><tspan x="0" y="0">System</tspan></text>
      </g>
    </g>
    <g id="Group_1808" data-name="Group 1808" transform="matrix(0.788, 0.616, -0.616, 0.788, 22.556, -592.616)">
      <path id="Path_993" data-name="Path 993" d="M616.609,302.347v-4.512a.775.775,0,0,0,.119-.3.537.537,0,0,0-.3-.477l-8.071-3.618a.457.457,0,0,0-.4,0l-8.071,3.618a.477.477,0,0,0-.3.477.457.457,0,0,0,.338.437l2.763.954v3.578a.5.5,0,0,0,.2.4.477.477,0,0,0,.457.06,13.755,13.755,0,0,1,9.6,0l.179.04a.477.477,0,0,0,.278-.1.457.457,0,0,0,.219-.4v-3.6l1.988-.656v4.095a1.292,1.292,0,1,0,.994,0Z" fill="#72bf44"/>
    </g>
  </g>
</svg>
